<svg width="48" height="48" viewBox="0 0 48 48" fill="none" xmlns="http://www.w3.org/2000/svg">
<g id="Frame" clip-path="url(#clip0_15_18)">
<g id="Group">
<path id="Vector" fill-rule="evenodd" clip-rule="evenodd" d="M0 24C0 10.745 10.745 0 24 0C37.255 0 48 10.745 48 24C48 37.255 37.255 48 24 48C10.745 48 0 37.255 0 24Z" fill="#FFEB00"/>
<path id="Vector_2" fill-rule="evenodd" clip-rule="evenodd" d="M24 11.277C32.284 11.277 39 16.583 39 23.127C39 29.672 32.284 34.977 24 34.977C23.08 34.977 22.178 34.911 21.303 34.786L15.222 38.891C15.1492 38.9487 15.0597 38.9813 14.9668 38.9839C14.8739 38.9864 14.7827 38.9588 14.7069 38.9053C14.631 38.8517 14.5745 38.7749 14.5459 38.6866C14.5172 38.5982 14.518 38.5029 14.548 38.415L15.962 33.133C11.777 31.031 9 27.335 9 23.127C9 16.583 15.716 11.277 24 11.277ZM30.22 19.684C29.804 19.684 29.502 19.981 29.502 20.391V26.33C29.502 26.74 29.791 27.016 30.22 27.016C30.63 27.016 30.938 26.721 30.938 26.33V24.398L31.453 23.872L33.338 26.442C33.615 26.816 33.764 26.982 34.029 27.01C34.066 27.013 34.104 27.015 34.141 27.015C34.295 27.015 34.801 26.975 34.857 26.452C34.895 26.159 34.72 25.932 34.509 25.656L32.466 22.981L34.193 21.238L34.369 21.042C34.603 20.782 34.722 20.652 34.722 20.455C34.731 20.033 34.382 19.803 34.035 19.794C33.761 19.794 33.578 19.944 33.465 20.056L30.937 22.69V20.39C30.937 19.968 30.649 19.684 30.22 19.684ZM20.856 19.684C20.296 19.684 19.938 20.116 19.789 20.521L17.706 26.038C17.6642 26.1378 17.6422 26.2448 17.641 26.353C17.641 26.725 17.951 27.016 18.347 27.016C18.706 27.016 18.925 26.854 19.037 26.506L19.358 25.536H22.357L22.67 26.518C22.781 26.853 23.01 27.016 23.37 27.016C23.737 27.016 24.025 26.743 24.025 26.396C24.025 26.34 24.008 26.2 23.944 26.027L21.925 20.519C21.738 19.989 21.348 19.684 20.856 19.684ZM17.936 19.748H13.484C13.067 19.748 12.842 20.085 12.842 20.402C12.842 20.702 13.01 21.054 13.484 21.054H14.994V26.264C14.994 26.728 15.268 27.016 15.71 27.016C16.153 27.016 16.428 26.728 16.428 26.265V21.055H17.936C18.41 21.055 18.579 20.703 18.579 20.402C18.579 20.085 18.354 19.748 17.936 19.748ZM25.49 19.684C25.048 19.684 24.773 19.971 24.773 20.434V26.141C24.773 26.638 25.053 26.935 25.523 26.935H28.197C28.631 26.935 28.874 26.614 28.883 26.308C28.8888 26.2208 28.8767 26.1333 28.8474 26.051C28.8182 25.9686 28.7724 25.8931 28.713 25.829C28.591 25.699 28.413 25.629 28.197 25.629H26.207V20.434C26.207 19.971 25.933 19.684 25.49 19.684ZM20.87 21L21.953 24.265H19.761L20.842 21C20.8431 20.9972 20.845 20.9947 20.8475 20.993C20.85 20.9913 20.853 20.9904 20.856 20.9904C20.859 20.9904 20.862 20.9913 20.8645 20.993C20.867 20.9947 20.8689 20.9972 20.87 21Z" fill="#3C2929"/>
</g>
</g>
<defs>
<clipPath id="clip0_15_18">
<rect width="48" height="48" fill="white"/>
</clipPath>
</defs>
</svg>
